<?xml version="1.0" encoding="utf-8"?><svg viewBox="0 0 502.66 502.66" xmlns="http://www.w3.org/2000/svg" xmlns:xlink="http://www.w3.org/1999/xlink"><style>:root>svg{display:none}:root>svg:target{display:block}</style><svg viewBox="0 0 502.664 502.664" id="icon" xmlns="http://www.w3.org/2000/svg"><path d="M153.821 358.226L0 274.337v-46.463l153.821-83.414v54.574L46.636 250.523l107.185 53.431v54.272zm26.273 29.358L282.103 115.08h32.227L212.084 387.584h-31.99zm168.749-29.358v-54.272l107.164-52.999-107.164-52.59v-53.927l153.821 83.522v46.183l-153.821 84.083z"/></svg><svg viewBox="0 0 24 24" id="left-arrow" xmlns="http://www.w3.org/2000/svg"><path fill-rule="evenodd" clip-rule="evenodd" d="M9.207 17.207a1 1 0 01-1.414 0l-4.5-4.5a1 1 0 010-1.414l4.5-4.5a1 1 0 011.414 1.414L6.414 11H20a1 1 0 110 2H6.414l2.793 2.793a1 1 0 010 1.414z"/></svg><svg viewBox="0 0 14 14" id="muted" xmlns="http://www.w3.org/2000/svg"><path fill-rule="evenodd" clip-rule="evenodd" d="M8 11.583c.584.416 1.334.083 1.334-.667v-3.75L6.25 10.249 8 11.583zM13.25.416a.805.805 0 00-1.166 0l-2.75 2.75V1.083C9.334.416 8.5-.001 8 .416L5.667 2.333c-.333.166-.667.333-1.083.333H2.667C1.75 2.666 1 3.416 1 4.333v3.333c0 .917.75 1.667 1.667 1.667h.5l-2.75 2.75a.806.806 0 000 1.166.806.806 0 001.167 0L13.25 1.583a.805.805 0 000-1.167z"/></svg><svg viewBox="0 0 19 22" id="play" xmlns="http://www.w3.org/2000/svg"><path d="M18.5 10.134a1 1 0 010 1.732L2 21.392a1 1 0 01-1.5-.866V1.474A1 1 0 012 .608l16.5 9.526z"/></svg><svg viewBox="0 0 24 24" id="right-arrow" xmlns="http://www.w3.org/2000/svg"><path fill-rule="evenodd" clip-rule="evenodd" d="M14.793 6.793a1 1 0 011.414 0l4.5 4.5a1 1 0 010 1.414l-4.5 4.5a1 1 0 01-1.414-1.414L17.586 13H4a1 1 0 110-2h13.586l-2.793-2.793a1 1 0 010-1.414z"/></svg><svg viewBox="0 0 53 50" id="services1" xmlns="http://www.w3.org/2000/svg"><path d="M50.977 26.523c.84 0 1.523-.682 1.523-1.523V13.625c0-.841-.682-1.523-1.523-1.523H28.023V2.25c0-.841-.682-1.523-1.523-1.523H10.25c-.841 0-1.523.682-1.523 1.523v9.852H2.023c-.84 0-1.523.682-1.523 1.523V25c0 .841.682 1.523 1.523 1.523h6.704v8.329H2.023c-.84 0-1.523.682-1.523 1.523V47.75c0 .841.682 1.523 1.523 1.523h48.954c.84 0 1.523-.682 1.523-1.523V36.375c0-.841-.682-1.523-1.523-1.523h-6.704v-8.329h6.704zm-1.524-3.046H36.148v-8.329h13.305v8.329zm-16.351 0H19.898v-8.329h13.204v8.329zM11.773 3.773h13.204v8.329H11.773V3.773zM3.547 23.477v-8.329h13.305v8.329H3.547zm8.226 3.046h13.204v8.329H11.773v-8.329zM3.547 37.898h13.305v8.329H3.547v-8.329zm16.351 0h13.204v8.329H19.898v-8.329zm29.555 0v8.329H36.148v-8.329h13.305zm-8.226-3.046H28.023v-8.329h13.204v8.329z"/></svg><svg viewBox="0 0 53 52" id="services2" xmlns="http://www.w3.org/2000/svg"><g clip-path="url(#ga)"><path d="M46.406 3.148a6.097 6.097 0 00-5.276 3.047H2.023C1.183 6.195.5 6.877.5 7.72v39.61c0 .84.682 1.523 1.523 1.523h44.383a6.1 6.1 0 006.094-6.094V9.242a6.1 6.1 0 00-6.094-6.094zm0 42.657H3.546V9.242h36.767v33.516a1.523 1.523 0 003.046 0 3.05 3.05 0 013.047-3.047 3.05 3.05 0 013.047 3.047 3.05 3.05 0 01-3.047 3.047zm3.047-8.323a6.057 6.057 0 00-3.047-.818c-1.109 0-2.15.298-3.047.818V9.242a3.05 3.05 0 013.047-3.047 3.05 3.05 0 013.047 3.047v28.24z"/><path d="M35.64 12.29H8.22c-.842 0-1.524.681-1.524 1.523v27.421c0 .842.682 1.524 1.524 1.524h15.234a1.523 1.523 0 001.524-1.524v-3.047a4.578 4.578 0 013.046-4.309v7.356c0 .842.683 1.524 1.524 1.524h6.094c.841 0 1.523-.682 1.523-1.524V13.812c0-.84-.682-1.523-1.523-1.523zm-1.523 27.42H31.07v-7.616c0-.842-.682-1.524-1.523-1.524-4.2 0-7.617 3.417-7.617 7.617v1.524H9.742v-9.14h6.094v4.57a1.524 1.524 0 003.047 0v-6.094c0-.841-.682-1.524-1.524-1.524H9.742V15.336h9.14v6.094h-4.57a1.523 1.523 0 000 3.047H26.5a1.523 1.523 0 000-3.047h-4.57v-6.094h12.187V39.71z"/></g><defs><clipPath id="ga"><path transform="translate(.5)" d="M0 0h52v52H0z"/></clipPath></defs></svg><svg viewBox="0 0 53 52" id="services3" xmlns="http://www.w3.org/2000/svg"><path d="M49.75 30.95a4.572 4.572 0 00.286-5.005l-6.09-10.65c-1.054-1.825-3.276-2.658-5.258-2.128a4.579 4.579 0 00-2.176-4.954L25.958 2.12a4.574 4.574 0 00-4.695.076A4.572 4.572 0 0017.359 0H5.07C2.55 0 .5 2.05.5 4.57v42.86C.5 49.95 2.55 52 5.07 52h42.86c2.52 0 4.57-2.05 4.57-4.57V35.14a4.576 4.576 0 00-2.75-4.19zM18.883 47.43c0 .84-.684 1.523-1.524 1.523H5.07c-.84 0-1.523-.683-1.523-1.523V33.617h15.336V47.43zm0-16.86H3.547V18.281h15.336v12.29zm0-15.336H3.547V4.57c0-.84.683-1.523 1.523-1.523h12.29c.84 0 1.523.683 1.523 1.523v10.664zM21.93 6.05l.423-.734a1.526 1.526 0 012.082-.558l10.554 6.094c.728.42.978 1.354.557 2.083l-1.76 3.06a1.517 1.517 0 00-.118.203L21.93 36.603V6.05zm0 36.663l14.24-24.755 2.945-1.7c.746-.43 1.77-.17 2.188.555l6.09 10.65c.422.73.176 1.665-.561 2.09L21.93 43.972v-1.258zm27.523 4.717c0 .84-.683 1.523-1.523 1.523H21.668c.162-.458.253-.95.26-1.46l23.967-13.876h2.035c.84 0 1.523.684 1.523 1.524V47.43z"/></svg><svg viewBox="0 0 47 52" id="services4" xmlns="http://www.w3.org/2000/svg"><path d="M40.36 4.57c0-2.52-2.05-4.57-4.57-4.57H5.32C2.8 0 .75 2.05.75 4.57v9.14a4.575 4.575 0 004.57 4.571h30.47c2.52 0 4.57-2.05 4.57-4.57v-1.524h1.523c.84 0 1.523.684 1.523 1.524v6.094c0 .84-.683 1.523-1.523 1.523H23.602c-2.52 0-4.57 2.05-4.57 4.57v4.57h-1.524c-.842 0-1.524.683-1.524 1.524v6.011l-1.523 6.192C13.47 48.157 16.464 52 20.555 52c4.092 0 7.083-3.847 6.095-7.8l-1.525-6.197v-6.01c0-.842-.682-1.524-1.523-1.524h-1.524v-4.57c0-.84.684-1.524 1.524-1.524h18.28c2.52 0 4.571-2.05 4.571-4.57V13.71c0-2.52-2.05-4.57-4.57-4.57h-1.524V4.57zM22.077 33.516v3.148H19.03v-3.148h3.047zm-1.523 15.437a3.234 3.234 0 01-3.137-4.024l1.284-5.218h3.705l1.285 5.223a3.234 3.234 0 01-3.137 4.02zM5.32 3.047h30.47c.839 0 1.523.683 1.523 1.523v1.524h-4.57c-1.481 0-3.375.554-5.567 1.196-2.961.868-6.317 1.85-9.668 1.85-3.267 0-5.57-.954-7.602-1.795-1.553-.643-3.02-1.251-4.586-1.251H3.797V4.57c0-.84.683-1.523 1.523-1.523zM37.312 13.71c0 .84-.683 1.523-1.523 1.523H5.32c-.84 0-1.523-.683-1.523-1.523V9.14H5.32c.96 0 2.045.45 3.42 1.019 2.18.903 4.895 2.027 8.768 2.027 3.788 0 7.523-1.094 10.525-1.972 1.885-.553 3.666-1.074 4.71-1.074h4.57v4.57z"/></svg></svg>